<svg xmlns="http://www.w3.org/2000/svg" width="26" height="26" viewBox="0 0 26 26">
  <path id="_001-moon" data-name="001-moon" d="M17.451.259A.966.966,0,0,0,17.2,1.3a11.881,11.881,0,0,1,.717,4.091A12.032,12.032,0,0,1,5.887,17.422,11.86,11.86,0,0,1,1.8,16.705.968.968,0,0,0,.587,18.012,13.544,13.544,0,0,0,12.724,26a13.4,13.4,0,0,0,5.386-1.027,13.681,13.681,0,0,0,7.356-7.346A13.387,13.387,0,0,0,26.5,12.445c0-.067,0-.135,0-.2A13.548,13.548,0,0,0,18.508.086.966.966,0,0,0,17.451.259Zm0,0" transform="translate(-0.501 0)" fill="#fff"/>
</svg>
