<svg id="Calque_1" data-name="Calque 1" xmlns="http://www.w3.org/2000/svg" viewBox="0 0 500 500"><defs><style>.cls-1,.cls-2{fill:#303030;}.cls-2{stroke:#fff;stroke-miterlimit:10;stroke-width:2px;}</style></defs><title>apicourtage_blanc copie</title><path class="cls-1" d="M61.09,242.46l179.63-48.39a28.92,28.92,0,0,1,14.58,0l181.62,48.39h23.2L260.61,172.2s-9.28-2.65-22.54,0L39.88,242.46Z"/><path class="cls-1" d="M103.82,260.17l-1.51,6H97l6.73-24.26h6.73l6.7,24.26h-5.51l-1.62-6Zm5.5-4L108,251.07c-.36-1.44-.76-3.46-1.12-4.94h-.07c-.32,1.48-.68,3.53-1,4.94l-1.26,5.14Z"/><path class="cls-1" d="M127.43,242.25a37.67,37.67,0,0,1,6.66-.51c3.21,0,5.55.61,7.17,1.95a7,7,0,0,1,2.44,5.5,7.74,7.74,0,0,1-2.19,5.8,10.46,10.46,0,0,1-7.27,2.48c-.62,0-1.16,0-1.59-.07v8.78h-5.22Zm5.22,11a6,6,0,0,0,1.51.11c2.74,0,4.32-1.51,4.32-3.92,0-2.2-1.33-3.64-3.92-3.64a7.37,7.37,0,0,0-1.91.18Z"/><path class="cls-1" d="M159.47,241.92v24.26h-5.25V241.92Z"/><path class="cls-1" d="M203.5,265.39a15.5,15.5,0,0,1-6.41,1.15c-6.84,0-12-4.32-12-12.27,0-7.6,5.15-12.74,12.68-12.74a13,13,0,0,1,5.75,1.08l-.75,2.55a11.51,11.51,0,0,0-4.9-1c-5.68,0-9.46,3.64-9.46,10,0,5.94,3.42,9.76,9.32,9.76a12.55,12.55,0,0,0,5.11-1Z"/><path class="cls-1" d="M234.6,253.8c0,8.35-5.07,12.78-11.27,12.78-6.4,0-10.9-5-10.9-12.31,0-7.7,4.79-12.74,11.26-12.74C230.32,241.53,234.6,246.6,234.6,253.8Zm-18.82.4c0,5.18,2.8,9.82,7.73,9.82s7.78-4.57,7.78-10.07c0-4.83-2.52-9.87-7.74-9.87S215.78,248.87,215.78,254.2Z"/><path class="cls-1" d="M249,241.92v14.37c0,5.43,2.42,7.73,5.65,7.73,3.6,0,5.91-2.37,5.91-7.73V241.92h3.17v14.15c0,7.45-3.93,10.51-9.18,10.51-5,0-8.72-2.84-8.72-10.37V241.92Z"/><path class="cls-1" d="M276.36,242.25a32.13,32.13,0,0,1,6-.51c3.34,0,5.5.61,7,2a6,6,0,0,1,1.91,4.61,6.36,6.36,0,0,1-4.57,6.19v.11c1.87.65,3,2.37,3.56,4.89a38.22,38.22,0,0,0,1.88,6.66h-3.24a30.65,30.65,0,0,1-1.62-5.79c-.72-3.35-2-4.61-4.86-4.72H279.5v10.51h-3.14Zm3.14,11.05h3.2c3.35,0,5.47-1.84,5.47-4.61,0-3.13-2.27-4.5-5.58-4.54a13,13,0,0,0-3.09.29Z"/><path class="cls-1" d="M307.86,244.59h-7.38v-2.67h18v2.67H311v21.59h-3.17Z"/><path class="cls-1" d="M329.57,258.55l-2.52,7.63h-3.24l8.24-24.26h3.78l8.28,24.26h-3.34l-2.6-7.63Zm8-2.45-2.38-7c-.54-1.58-.9-3-1.26-4.43h-.07c-.36,1.44-.76,2.92-1.23,4.4l-2.37,7Z"/><path class="cls-1" d="M372.81,265.1a22.48,22.48,0,0,1-7.46,1.34c-3.67,0-6.69-.94-9.07-3.21a12.49,12.49,0,0,1-3.38-9c0-7.24,5-12.53,13.14-12.53a14.91,14.91,0,0,1,6,1.12l-.76,2.55a12.7,12.7,0,0,0-5.36-1c-5.91,0-9.76,3.67-9.76,9.75s3.71,9.79,9.36,9.79a10.28,10.28,0,0,0,4.18-.64V256h-4.94v-2.52h8Z"/><path class="cls-1" d="M397.36,254.81h-9.43v8.75h10.51v2.62H384.79V241.92H397.9v2.63h-10v7.67h9.43Z"/><path class="cls-1" d="M154.49,287c-.08-1.93-.15-4.28-.15-6.55h-.08c-.45,2-1.07,4.35-1.62,6.14l-1.88,6.4H148l-1.7-6.32c-.48-1.8-1-4.1-1.38-6.22h0c-.07,2.17-.17,4.62-.27,6.6l-.3,6.22H141l1.1-16.85h4.6l1.55,5.78c.52,2,1,4,1.37,6h.08c.37-1.92.9-4.05,1.42-6l1.65-5.75h4.52l.95,16.85h-3.47Z"/><path class="cls-1" d="M175.16,286.1h-5.5v4.17h6.15v3H166V276.45h9.45v3h-5.8v3.62h5.5Z"/><path class="cls-1" d="M183.31,276.68a29.85,29.85,0,0,1,4.6-.35c2.88,0,4.78.57,6.23,1.72,1.65,1.3,2.64,3.43,2.64,6.48,0,3.27-1.07,5.57-2.64,6.92s-4,2-7,2a26.07,26.07,0,0,1-3.83-.25ZM187,290.5a5.35,5.35,0,0,0,1.1.07c2.88,0,4.88-1.77,4.88-6,0-3.48-1.7-5.4-4.58-5.4a6.27,6.27,0,0,0-1.4.12Z"/><path class="cls-1" d="M207.84,276.45V293.3h-3.65V276.45Z"/><path class="cls-1" d="M218.86,279.6h-4.07v-3.15h11.84v3.15h-4.12v13.7h-3.65Z"/><path class="cls-1" d="M242.71,286.1h-5.5v4.17h6.15v3h-9.8V276.45H243v3h-5.8v3.62h5.5Z"/><path class="cls-1" d="M250.86,276.68a28.67,28.67,0,0,1,4.63-.35c2.27,0,4,.35,5.14,1.32a4.23,4.23,0,0,1,1.5,3.53,4.46,4.46,0,0,1-2.87,4.15v.07c1.17.48,1.8,1.58,2.2,3.2a38,38,0,0,0,1.27,4.7H259a22.76,22.76,0,0,1-1.08-3.95c-.4-2.1-1.07-2.67-2.5-2.7h-.92v6.65h-3.63Zm3.63,7.3h1.22a2.48,2.48,0,0,0,2.78-2.5c0-1.5-.9-2.38-2.58-2.38a7.42,7.42,0,0,0-1.42.1Z"/><path class="cls-1" d="M269.76,276.68a28.67,28.67,0,0,1,4.63-.35c2.27,0,4,.35,5.15,1.32a4.26,4.26,0,0,1,1.5,3.53,4.47,4.47,0,0,1-2.88,4.15v.07c1.17.48,1.8,1.58,2.2,3.2a38,38,0,0,0,1.27,4.7h-3.74a22.76,22.76,0,0,1-1.08-3.95c-.4-2.1-1.07-2.67-2.5-2.7h-.92v6.65h-3.63Zm3.63,7.3h1.22a2.48,2.48,0,0,0,2.78-2.5c0-1.5-.9-2.38-2.58-2.38a7.42,7.42,0,0,0-1.42.1Z"/><path class="cls-1" d="M292.36,289.12l-1.05,4.18h-3.7l4.68-16.85H297l4.65,16.85h-3.82l-1.13-4.18Zm3.83-2.74-.9-3.58c-.25-1-.53-2.4-.78-3.42h-.05c-.22,1-.47,2.45-.72,3.42l-.88,3.58Z"/><path class="cls-1" d="M308.76,293.3V276.45h4l3.23,6.3a50.2,50.2,0,0,1,2.47,5.53h.05c-.2-2.1-.3-4.55-.3-7.28v-4.55h3.3V293.3h-3.7l-3.27-6.47a59.64,59.64,0,0,1-2.58-5.68h-.07c.12,2.08.17,4.53.17,7.47v4.68Z"/><path class="cls-1" d="M338.86,286.1h-5.5v4.17h6.15v3h-9.8V276.45h9.45v3h-5.8v3.62h5.5Z"/><path class="cls-1" d="M356.16,286.1h-5.5v4.17h6.15v3H347V276.45h9.45v3h-5.8v3.62h5.5Z"/><path class="cls-1" d="M58.31,322.21l-.67,2.67H55.27l3-10.78h3l3,10.78H61.79l-.72-2.67Zm2.45-1.76-.57-2.29c-.16-.64-.34-1.54-.5-2.19h0c-.15.65-.31,1.57-.47,2.19l-.56,2.29Z"/><path class="cls-1" d="M77.53,324.45a10.49,10.49,0,0,1-3.18.55,4.93,4.93,0,0,1-5.43-5.4A5.31,5.31,0,0,1,74.6,314a6.46,6.46,0,0,1,2.63.47l-.47,1.92a4.75,4.75,0,0,0-2.13-.4c-1.84,0-3.26,1.09-3.26,3.58,0,2.34,1.28,3.53,3,3.53a2.62,2.62,0,0,0,1-.13v-2.36H73.85v-1.85h3.68Z"/><path class="cls-1" d="M85.85,314.1v10.78H83.51V314.1Z"/><path class="cls-1" d="M93.88,316.11H91.27v-2h7.59v2H96.22v8.77H93.88Z"/><path class="cls-1" d="M105.55,322.21l-.68,2.67H102.5l3-10.78h3l3,10.78H109l-.72-2.67Zm2.44-1.76-.57-2.29c-.16-.64-.34-1.54-.5-2.19h0c-.14.65-.3,1.57-.46,2.19l-.56,2.29Z"/><path class="cls-1" d="M117.66,316.11h-2.61v-2h7.58v2H120v8.77h-2.33Z"/><path class="cls-1" d="M133.9,320.28h-3.52V323h3.93v1.93H128V314.1h6.05V316h-3.71v2.32h3.52Z"/><path class="cls-1" d="M142.39,314.1v6.45c0,1.77.64,2.59,1.68,2.59s1.7-.77,1.7-2.59V314.1h2.34v6.22c0,3.17-1.49,4.72-4.1,4.72s-3.95-1.52-3.95-4.73V314.1Z"/><path class="cls-1" d="M154.3,314.24a18,18,0,0,1,3-.22,5,5,0,0,1,3.29.84,2.73,2.73,0,0,1,1,2.26,2.86,2.86,0,0,1-1.85,2.66v.05a2.58,2.58,0,0,1,1.41,2.05,23.25,23.25,0,0,0,.82,3h-2.4a13.77,13.77,0,0,1-.69-2.52c-.26-1.35-.69-1.72-1.6-1.73h-.59v4.25H154.3Zm2.32,4.67h.78a1.58,1.58,0,0,0,1.78-1.6,1.44,1.44,0,0,0-1.65-1.52,4.77,4.77,0,0,0-.91.07Z"/><path class="cls-1" d="M174.57,314.24a18.79,18.79,0,0,1,2.94-.22,6.07,6.07,0,0,1,4,1.1,5,5,0,0,1,1.7,4.15,5.61,5.61,0,0,1-1.7,4.43A6.84,6.84,0,0,1,177,325a17,17,0,0,1-2.45-.16Zm2.33,8.85a3.12,3.12,0,0,0,.71.05c1.84,0,3.12-1.14,3.12-3.84,0-2.23-1.09-3.46-2.93-3.46a3.7,3.7,0,0,0-.9.08Z"/><path class="cls-1" d="M194.76,320.28h-3.52V323h3.94v1.93H188.9V314.1h6V316h-3.71v2.32h3.52Z"/><path class="cls-1" d="M208.14,322.48a5.41,5.41,0,0,0,2.41.6c1.09,0,1.65-.48,1.65-1.19s-.51-1.09-1.68-1.58c-1.71-.72-2.69-1.75-2.69-3.14,0-1.81,1.43-3.22,3.88-3.22a5.52,5.52,0,0,1,2.43.5l-.48,1.9a4.49,4.49,0,0,0-2-.46c-1,0-1.48.51-1.48,1.06s.51,1,1.84,1.56c1.76.77,2.52,1.8,2.52,3.19,0,1.86-1.39,3.33-4.09,3.33a6.33,6.33,0,0,1-2.76-.59Z"/><path class="cls-1" d="M229.08,319.36c0,3.7-1.93,5.68-4.75,5.68-3,0-4.58-2.46-4.58-5.5s1.79-5.6,4.74-5.6C227.6,313.94,229.08,316.53,229.08,319.36Zm-6.86.15c0,2.21.83,3.63,2.22,3.63s2.18-1.57,2.18-3.7c0-1.92-.74-3.6-2.19-3.6S222.22,317.35,222.22,319.51Z"/><path class="cls-1" d="M234.78,314.1h2.33v8.82h3.83v2h-6.16Z"/><path class="cls-1" d="M248.35,314.1v6.45c0,1.77.64,2.59,1.68,2.59s1.69-.77,1.69-2.59V314.1h2.34v6.22c0,3.17-1.49,4.72-4.1,4.72s-4-1.52-4-4.73V314.1Z"/><path class="cls-1" d="M262.06,316.11h-2.61v-2H267v2h-2.65v8.77h-2.33Z"/><path class="cls-1" d="M274.78,314.1v10.78h-2.34V314.1Z"/><path class="cls-1" d="M289.82,319.36c0,3.7-1.94,5.68-4.75,5.68-3,0-4.58-2.46-4.58-5.5s1.79-5.6,4.74-5.6S289.82,316.53,289.82,319.36Zm-6.87.15c0,2.21.84,3.63,2.23,3.63s2.17-1.57,2.17-3.7c0-1.92-.73-3.6-2.19-3.6S283,317.35,283,319.51Z"/><path class="cls-1" d="M295.51,324.88V314.1h2.56l2.07,4a31.44,31.44,0,0,1,1.58,3.54h0c-.12-1.35-.19-2.92-.19-4.66V314.1h2.11v10.78h-2.36l-2.1-4.14c-.56-1.09-1.2-2.47-1.65-3.63h-.05c.08,1.32.11,2.89.11,4.78v3Z"/><path class="cls-1" d="M309.88,322.48a5.46,5.46,0,0,0,2.42.6c1.09,0,1.65-.48,1.65-1.19s-.52-1.09-1.68-1.58c-1.72-.72-2.69-1.75-2.69-3.14,0-1.81,1.42-3.22,3.87-3.22a5.49,5.49,0,0,1,2.43.5l-.48,1.9a4.44,4.44,0,0,0-2-.46c-1,0-1.49.51-1.49,1.06s.51,1,1.84,1.56c1.76.77,2.53,1.8,2.53,3.19,0,1.86-1.39,3.33-4.1,3.33a6.28,6.28,0,0,1-2.75-.59Z"/><path class="cls-1" d="M329.21,314.24a18.79,18.79,0,0,1,2.94-.22,6.07,6.07,0,0,1,4,1.1,5,5,0,0,1,1.7,4.15,5.61,5.61,0,0,1-1.7,4.43,6.84,6.84,0,0,1-4.48,1.3,17,17,0,0,1-2.45-.16Zm2.33,8.85a3.12,3.12,0,0,0,.71.05c1.84,0,3.12-1.14,3.12-3.84,0-2.23-1.09-3.46-2.93-3.46a3.76,3.76,0,0,0-.9.08Z"/><path class="cls-1" d="M349.4,320.28h-3.52V323h3.94v1.93h-6.28V314.1h6V316h-3.71v2.32h3.52Z"/><path class="cls-1" d="M369.88,324.63a6.29,6.29,0,0,1-2.41.4c-3.44,0-5.19-2.31-5.19-5.38,0-3.79,2.51-5.7,5.43-5.7a5.21,5.21,0,0,1,2.3.42l-.46,1.89a4.11,4.11,0,0,0-1.73-.35c-1.7,0-3.07,1.12-3.07,3.6,0,2.29,1.18,3.53,3.08,3.53a5,5,0,0,0,1.73-.28Z"/><path class="cls-1" d="M375.53,314.24a18.1,18.1,0,0,1,3-.22,5.08,5.08,0,0,1,3.3.84,2.75,2.75,0,0,1,1,2.26,2.86,2.86,0,0,1-1.84,2.66v.05a2.62,2.62,0,0,1,1.41,2.05,22,22,0,0,0,.81,3h-2.4a13.77,13.77,0,0,1-.69-2.52c-.25-1.35-.69-1.72-1.6-1.73h-.59v4.25h-2.32Zm2.32,4.67h.78a1.58,1.58,0,0,0,1.78-1.6,1.44,1.44,0,0,0-1.65-1.52,4.77,4.77,0,0,0-.91.07Z"/><path class="cls-1" d="M394.46,320.28h-3.52V323h3.93v1.93H388.6V314.1h6V316h-3.71v2.32h3.52Zm-.11-8.68-2,1.92h-1.81l1.33-1.92Z"/><path class="cls-1" d="M400.65,314.24a18.79,18.79,0,0,1,2.94-.22,6.07,6.07,0,0,1,4,1.1,5,5,0,0,1,1.7,4.15,5.61,5.61,0,0,1-1.7,4.43,6.84,6.84,0,0,1-4.48,1.3,17.14,17.14,0,0,1-2.45-.16Zm2.34,8.85a3,3,0,0,0,.7.05c1.84,0,3.12-1.14,3.12-3.84,0-2.23-1.09-3.46-2.93-3.46a3.6,3.6,0,0,0-.89.08Z"/><path class="cls-1" d="M417.32,314.1v10.78H415V314.1Z"/><path class="cls-1" d="M425.35,316.11h-2.61v-2h7.59v2h-2.64v8.77h-2.34Z"/><path class="cls-1" d="M435.59,322.48a5.49,5.49,0,0,0,2.42.6c1.09,0,1.65-.48,1.65-1.19s-.52-1.09-1.68-1.58c-1.72-.72-2.69-1.75-2.69-3.14,0-1.81,1.42-3.22,3.87-3.22a5.49,5.49,0,0,1,2.43.5l-.48,1.9a4.44,4.44,0,0,0-2-.46c-1,0-1.49.51-1.49,1.06s.51,1,1.84,1.56c1.76.77,2.53,1.8,2.53,3.19,0,1.86-1.39,3.33-4.1,3.33a6.28,6.28,0,0,1-2.75-.59Z"/><line class="cls-2" x1="50.91" y1="302.65" x2="447.99" y2="302.65"/><rect class="cls-1" x="107.1" y="284.95" width="18.03" height="2.12"/><rect class="cls-1" x="371.6" y="284.95" width="18.03" height="2.12"/></svg>