<svg id="Calque_1" data-name="Calque 1" xmlns="http://www.w3.org/2000/svg" viewBox="0 0 500 500"><defs><style>.cls-1{fill:#303030;}</style></defs><title>contralco_blanc copie</title><path class="cls-1" d="M146.38,262.94a19.13,19.13,0,0,1,0-34.38,25.07,25.07,0,0,1,11.33-2.5,21.56,21.56,0,0,1,11.19,2.79,15.43,15.43,0,0,1,6.69,7.7l-10.35,5.28q-2.6-5.15-7.6-5.14a8,8,0,0,0-5.95,2.4,9,9,0,0,0-2.36,6.61,9.25,9.25,0,0,0,2.36,6.72,8,8,0,0,0,5.95,2.43q5,0,7.6-5.14L175.59,255a15.5,15.5,0,0,1-6.69,7.71,21.65,21.65,0,0,1-11.19,2.78A24.7,24.7,0,0,1,146.38,262.94Z"/><path class="cls-1" d="M188.33,262.94a19.23,19.23,0,0,1,0-34.38,25.89,25.89,0,0,1,22.2,0,18.71,18.71,0,0,1,7.67,7,19.32,19.32,0,0,1-7.67,27.41,25.44,25.44,0,0,1-22.16,0Zm16.81-10.52a9.47,9.47,0,0,0,2.26-6.72,9.22,9.22,0,0,0-2.26-6.61,8.12,8.12,0,0,0-11.53,0,9.22,9.22,0,0,0-2.26,6.61,9.47,9.47,0,0,0,2.26,6.72,8.05,8.05,0,0,0,11.53,0Z"/><path class="cls-1" d="M263.38,230.29q4.33,4.22,4.33,12.74v21.81H254.34V245.21q0-7.82-6.27-7.82a7.15,7.15,0,0,0-5.52,2.26c-1.38,1.5-2.08,3.75-2.08,6.75v18.44H227.1V226.7h12.74v4.15a15.05,15.05,0,0,1,5.35-3.55,18.11,18.11,0,0,1,6.76-1.24Q259,226.06,263.38,230.29Z"/><path class="cls-1" d="M302.41,263.29a13.23,13.23,0,0,1-4.12,1.62,22.57,22.57,0,0,1-5.17.57q-7.47,0-11.47-3.66t-4-10.91V238.1h-5.56v-10h5.56v-9.93H291v9.93h8.72v10H291v12.67a4.48,4.48,0,0,0,1.09,3.2,3.8,3.8,0,0,0,2.92,1.16,7.1,7.1,0,0,0,4.08-1.2Z"/><path class="cls-1" d="M325.6,227.37a20.1,20.1,0,0,1,7.49-1.31v12a27.51,27.51,0,0,0-3-.21,9.32,9.32,0,0,0-6.72,2.32c-1.62,1.55-2.42,3.92-2.42,7.11v17.52H307.54V226.7h12.74v4.57A12.46,12.46,0,0,1,325.6,227.37Z"/><path class="cls-1" d="M369.05,230.39q5,4.34,5,13.27v21.18H361.59v-4.92q-2.88,5.55-11.26,5.56a17.67,17.67,0,0,1-7.67-1.55,11.33,11.33,0,0,1-4.89-4.19,11,11,0,0,1-1.66-6,9.78,9.78,0,0,1,4.16-8.41c2.77-2,7-3,12.81-3h7.6q-.36-6-8.1-6a18.47,18.47,0,0,0-5.56.88,14.93,14.93,0,0,0-4.78,2.43l-4.51-9.08a24.86,24.86,0,0,1,7.71-3.27,36.37,36.37,0,0,1,9.11-1.17Q364.06,226.06,369.05,230.39ZM358.14,255.9a6.26,6.26,0,0,0,2.54-3.3v-3.31h-5.77c-3.9,0-5.84,1.29-5.84,3.87A3.39,3.39,0,0,0,350.4,256a5.71,5.71,0,0,0,3.66,1.06A7.4,7.4,0,0,0,358.14,255.9Z"/><path class="cls-1" d="M382.49,212.62h13.38v52.22H382.49Z"/><path class="cls-1" d="M412.68,262.94a19.14,19.14,0,0,1,0-34.38,25.11,25.11,0,0,1,11.34-2.5,21.55,21.55,0,0,1,11.18,2.79,15.34,15.34,0,0,1,6.69,7.7l-10.34,5.28q-2.61-5.15-7.6-5.14a8,8,0,0,0-5.95,2.4,9,9,0,0,0-2.36,6.61,9.25,9.25,0,0,0,2.36,6.72,7.93,7.93,0,0,0,5.95,2.43q5,0,7.6-5.14L441.89,255a15.4,15.4,0,0,1-6.69,7.71A21.64,21.64,0,0,1,424,265.48,24.74,24.74,0,0,1,412.68,262.94Z"/><path class="cls-1" d="M454.63,262.94a18.82,18.82,0,0,1-10.48-17.24,18.75,18.75,0,0,1,10.45-17.14,25.89,25.89,0,0,1,22.2,0,18.77,18.77,0,0,1,7.67,7,19.32,19.32,0,0,1-7.67,27.41,25.46,25.46,0,0,1-22.17,0Zm16.82-10.52a9.51,9.51,0,0,0,2.25-6.72,9.26,9.26,0,0,0-2.25-6.61,8.14,8.14,0,0,0-11.54,0,9.26,9.26,0,0,0-2.25,6.61,9.51,9.51,0,0,0,2.25,6.72,8.07,8.07,0,0,0,11.54,0Z"/><path class="cls-1" d="M138.41,289.26a2.31,2.31,0,0,0,.76-.12.71.71,0,0,0,.4-.43,2.71,2.71,0,0,0,.15-1v-8.84h-.85a2.11,2.11,0,0,0-1.68.74,3.42,3.42,0,0,0-.59,2.18h-1.21l.09-4.17h11.18l.11,4.17h-1.22a3.49,3.49,0,0,0-.6-2.21,2,2,0,0,0-1.67-.73h-.88v8.66a11.53,11.53,0,0,1-.08,1.66c.41,0,.9-.06,1.48-.06v1.42h-5.39Z"/><path class="cls-1" d="M149.5,289.26a2.24,2.24,0,0,0,.75-.12.73.73,0,0,0,.41-.43,2.71,2.71,0,0,0,.15-1v-7.07a14.91,14.91,0,0,1,.07-1.66l-1.38.06v-1.42h9.22l.11,3.58h-1.21a2.3,2.3,0,0,0-.66-1.89,2.27,2.27,0,0,0-1.58-.49l-.66,0a2.06,2.06,0,0,0-.7.12.7.7,0,0,0-.4.45,3,3,0,0,0-.14,1v2.77h2.16c0-.21,0-.75-.07-1.61H157V286h-1.22a2,2,0,0,0-.23-1.09,1,1,0,0,0-.6-.45,3.4,3.4,0,0,0-1-.09l-.48,0v3a14.37,14.37,0,0,1-.07,1.62h2.47a2.19,2.19,0,0,0,1.6-.64,2.72,2.72,0,0,0,.65-2h1.2l-.09,4.06H149.5Z"/><path class="cls-1" d="M165.63,290.54a6.37,6.37,0,0,1-1.58-.67h0l.06.78h-1.42v-4.32h1.22a3.71,3.71,0,0,0,1.16,2.32,3.31,3.31,0,0,0,2.25.8,2.45,2.45,0,0,0,1.59-.51,1.55,1.55,0,0,0,.62-1.23,1.41,1.41,0,0,0-.41-1,3.4,3.4,0,0,0-.92-.66q-.51-.24-1.62-.69a9.67,9.67,0,0,1-3.11-1.84,3.58,3.58,0,0,1-1.08-2.71,3.5,3.5,0,0,1,.43-1.65,3.34,3.34,0,0,1,1.39-1.34,5.12,5.12,0,0,1,2.5-.54,6.63,6.63,0,0,1,1.66.23,4.37,4.37,0,0,1,1.44.66h0l-.08-.76h1.44v4.3H170a4,4,0,0,0-1.06-2.31,2.94,2.94,0,0,0-2.1-.79,2.32,2.32,0,0,0-1.43.45,1.37,1.37,0,0,0-.6,1.14,1.7,1.7,0,0,0,.68,1.36,9.76,9.76,0,0,0,2.31,1.22,11.06,11.06,0,0,1,3,1.71,3.14,3.14,0,0,1,1.18,2.57,3.34,3.34,0,0,1-.59,1.94,4,4,0,0,1-1.66,1.32,6.2,6.2,0,0,1-2.48.47A6,6,0,0,1,165.63,290.54Z"/><path class="cls-1" d="M177.43,289.26a2.24,2.24,0,0,0,.75-.12.73.73,0,0,0,.41-.43,2.71,2.71,0,0,0,.15-1v-8.84h-.85a2.08,2.08,0,0,0-1.68.74,3.42,3.42,0,0,0-.59,2.18H174.4l.09-4.17h11.18l.11,4.17h-1.21a3.49,3.49,0,0,0-.6-2.21,2,2,0,0,0-1.67-.73h-.89v8.66a12,12,0,0,1-.07,1.66c.4,0,.9-.06,1.47-.06v1.42h-5.38Z"/><path class="cls-1" d="M191.64,290.54a6.37,6.37,0,0,1-1.58-.67h0l.06.78h-1.42v-4.32h1.22a3.71,3.71,0,0,0,1.16,2.32,3.31,3.31,0,0,0,2.25.8,2.45,2.45,0,0,0,1.59-.51,1.55,1.55,0,0,0,.62-1.23,1.41,1.41,0,0,0-.41-1,3.4,3.4,0,0,0-.92-.66q-.51-.24-1.62-.69a9.67,9.67,0,0,1-3.11-1.84,3.58,3.58,0,0,1-1.08-2.71,3.5,3.5,0,0,1,.43-1.65,3.34,3.34,0,0,1,1.39-1.34,5.12,5.12,0,0,1,2.5-.54,6.63,6.63,0,0,1,1.66.23,4.37,4.37,0,0,1,1.44.66h0l-.08-.76h1.44v4.3H196a4,4,0,0,0-1.06-2.31,2.94,2.94,0,0,0-2.1-.79,2.32,2.32,0,0,0-1.43.45,1.37,1.37,0,0,0-.6,1.14,1.7,1.7,0,0,0,.68,1.36,9.76,9.76,0,0,0,2.31,1.22,11.06,11.06,0,0,1,3,1.71,3.14,3.14,0,0,1,1.18,2.57,3.34,3.34,0,0,1-.59,1.94,4,4,0,0,1-1.66,1.32,6.2,6.2,0,0,1-2.48.47A6,6,0,0,1,191.64,290.54Z"/><path class="cls-1" d="M207.38,289.26a2.26,2.26,0,0,0,.76-.12.76.76,0,0,0,.41-.43,3,3,0,0,0,.14-1v-7.07a14.55,14.55,0,0,1,.08-1.66l-1.39.06v-1.42h9.23l.11,3.58H215.5a2.33,2.33,0,0,0-.65-1.89,2.28,2.28,0,0,0-1.58-.49l-.67,0a2.15,2.15,0,0,0-.7.12.69.69,0,0,0-.39.45,2.76,2.76,0,0,0-.14,1v2.77h2.16c0-.21,0-.75-.08-1.61h1.42V286h-1.21a2,2,0,0,0-.23-1.09,1,1,0,0,0-.6-.45,3.43,3.43,0,0,0-1-.09l-.48,0v3a14,14,0,0,1-.08,1.62h2.48a2.17,2.17,0,0,0,1.59-.64,2.68,2.68,0,0,0,.66-2h1.2l-.1,4.06h-9.74Z"/><path class="cls-1" d="M222.79,289.26a2.24,2.24,0,0,0,.75-.12.73.73,0,0,0,.41-.43,2.71,2.71,0,0,0,.15-1v-8.84h-.85a2.08,2.08,0,0,0-1.68.74,3.42,3.42,0,0,0-.59,2.18h-1.22l.09-4.17H231l.11,4.17h-1.21a3.49,3.49,0,0,0-.6-2.21,2,2,0,0,0-1.67-.73h-.89v8.66a12,12,0,0,1-.07,1.66c.4,0,.9-.06,1.47-.06v1.42h-5.38Z"/><path class="cls-1" d="M243,289.91a6,6,0,0,1-2.23-2.37,7,7,0,0,1-.8-3.33,7.77,7.77,0,0,1,.75-3.35,6.35,6.35,0,0,1,2.2-2.59,6.12,6.12,0,0,1,3.51-1,5.91,5.91,0,0,1,1.59.24,6.21,6.21,0,0,1,1.58.67h0l-.07-.78h1.42v4.3h-1.2c-.33-2-1.37-3.07-3.1-3.1a3.1,3.1,0,0,0-2.09.73,4.42,4.42,0,0,0-1.29,1.93,7.76,7.76,0,0,0-.42,2.58,7.94,7.94,0,0,0,.46,2.82,4.31,4.31,0,0,0,1.33,1.93,3.24,3.24,0,0,0,2.08.69,4.82,4.82,0,0,0,2.32-.61,5.73,5.73,0,0,0,1.91-1.66l.88.82a6.72,6.72,0,0,1-2.67,2.31,7.22,7.22,0,0,1-2.88.64A6.26,6.26,0,0,1,243,289.91Z"/><path class="cls-1" d="M256.9,289.8a5.82,5.82,0,0,1-2.11-2.51,8.17,8.17,0,0,1-.66-3.27,7.26,7.26,0,0,1,.74-3.19,6.35,6.35,0,0,1,2.2-2.55,6.28,6.28,0,0,1,9.25,2.55A7.65,7.65,0,0,1,267,284a7.24,7.24,0,0,1-.74,3.17,6.34,6.34,0,0,1-2.2,2.57,6,6,0,0,1-3.53,1A6.36,6.36,0,0,1,256.9,289.8Zm5.79-1.13a4.32,4.32,0,0,0,1.09-1.92,8.76,8.76,0,0,0,.33-2.41,8.16,8.16,0,0,0-.92-4.17,3,3,0,0,0-2.73-1.55,2.73,2.73,0,0,0-2,.77,4.44,4.44,0,0,0-1.1,2,9.11,9.11,0,0,0-.33,2.45,9.63,9.63,0,0,0,.36,2.59,5.09,5.09,0,0,0,1.21,2.16,2.81,2.81,0,0,0,2.13.88A2.64,2.64,0,0,0,262.69,288.67Z"/><path class="cls-1" d="M273.77,283.12c-.3-.39-.64-.85-1-1.38h0l0,5.72a14.55,14.55,0,0,1-.08,1.66c.4,0,.86-.06,1.39-.06v1.42h-4.21v-1.22a2.31,2.31,0,0,0,.76-.12.71.71,0,0,0,.4-.43,2.71,2.71,0,0,0,.15-1l0-7.07a12,12,0,0,1,.07-1.66l-1.4.06v-1.42h2.89l5.65,7.12c.51.68.94,1.26,1.29,1.75h0v-5.85c0-.8,0-1.35.05-1.66l-1.38.06v-1.42h4.21v1.22a2.26,2.26,0,0,0-.76.12.76.76,0,0,0-.41.43,2.71,2.71,0,0,0-.15,1.05v10.28h-1.56Z"/><path class="cls-1" d="M288,289.26a2.24,2.24,0,0,0,.75-.12.76.76,0,0,0,.41-.43,2.71,2.71,0,0,0,.15-1v-8.84h-.85a2.08,2.08,0,0,0-1.68.74,3.36,3.36,0,0,0-.59,2.18H285l.09-4.17h11.18l.11,4.17h-1.22a3.49,3.49,0,0,0-.6-2.21,2,2,0,0,0-1.66-.73H292v8.66a12,12,0,0,1-.07,1.66q.6-.06,1.47-.06v1.42H288Z"/><path class="cls-1" d="M299.1,289.26a2.31,2.31,0,0,0,.76-.12.71.71,0,0,0,.4-.43,2.71,2.71,0,0,0,.15-1v-7.07a14.55,14.55,0,0,1,.08-1.66l-1.39.06v-1.42l5.24,0a6.91,6.91,0,0,1,3.9.89,3.24,3.24,0,0,1,1.38,2.93,3.47,3.47,0,0,1-.82,2.26,4.79,4.79,0,0,1-2.43,1.45v0a2,2,0,0,1,.68.45,3.06,3.06,0,0,1,.59.71l.87,1.29a7.5,7.5,0,0,0,1,1.35,1.59,1.59,0,0,0,1,.38v1.22h-3.05a2.71,2.71,0,0,1-.62-.64,11.46,11.46,0,0,1-.72-1.09l-1.37-2.22a8.26,8.26,0,0,0-.77-1.07h-1v2a14.69,14.69,0,0,1-.08,1.68c.4,0,.92-.06,1.57-.06v1.42H299.1Zm7.06-5.8a2.87,2.87,0,0,0,.67-2.11,2.24,2.24,0,0,0-.78-2,3.2,3.2,0,0,0-1.73-.5,1.37,1.37,0,0,0-.94.28,1.65,1.65,0,0,0-.29,1.18v3.78a6.91,6.91,0,0,0,.88.08A3,3,0,0,0,306.16,283.46Z"/><path class="cls-1" d="M315.65,289.8a5.73,5.73,0,0,1-2.1-2.51,8,8,0,0,1-.67-3.27,7.41,7.41,0,0,1,.74-3.19,6.43,6.43,0,0,1,2.2-2.55,6.76,6.76,0,0,1,7.11,0,6.23,6.23,0,0,1,2.15,2.55,7.81,7.81,0,0,1,.7,3.19,7.39,7.39,0,0,1-.74,3.17,6.36,6.36,0,0,1-2.21,2.57,6,6,0,0,1-3.53,1A6.38,6.38,0,0,1,315.65,289.8Zm3.67-15.2L316,276.17l-.5-.83,3.77-2.77h.37l3.59,2.77-.57.86Zm2.12,14.07a4.23,4.23,0,0,0,1.09-1.92,8.76,8.76,0,0,0,.33-2.41,8.16,8.16,0,0,0-.92-4.17,3,3,0,0,0-2.73-1.55,2.71,2.71,0,0,0-2,.77,4.36,4.36,0,0,0-1.11,2,9.11,9.11,0,0,0-.33,2.45,9.26,9.26,0,0,0,.37,2.59,5,5,0,0,0,1.21,2.16,2.78,2.78,0,0,0,2.13.88A2.62,2.62,0,0,0,321.44,288.67Z"/><path class="cls-1" d="M328.62,289.26a2.24,2.24,0,0,0,.75-.12.73.73,0,0,0,.41-.43,2.71,2.71,0,0,0,.15-1v-7.07a14.91,14.91,0,0,1,.07-1.66l-1.38.06v-1.42h5.29v1.22a2.24,2.24,0,0,0-.75.12.73.73,0,0,0-.41.43,2.71,2.71,0,0,0-.15,1.05v7.07a14.37,14.37,0,0,1-.07,1.62H335a2.1,2.1,0,0,0,1.72-.79,3.54,3.54,0,0,0,.6-2.24h1.24l-.11,4.43h-9.83Z"/><path class="cls-1" d="M341.25,289.26a2.31,2.31,0,0,0,.76-.12.76.76,0,0,0,.41-.43,3,3,0,0,0,.14-1v-7.07a14.55,14.55,0,0,1,.08-1.66l-1.39.06v-1.42h9.23l.11,3.58h-1.22a2.3,2.3,0,0,0-.66-1.89,2.24,2.24,0,0,0-1.57-.49l-.67,0a2.15,2.15,0,0,0-.7.12.69.69,0,0,0-.39.45,2.76,2.76,0,0,0-.14,1v2.77h2.16c0-.21,0-.75-.08-1.61h1.42V286h-1.21a1.93,1.93,0,0,0-.24-1.09,1,1,0,0,0-.59-.45,3.43,3.43,0,0,0-1-.09l-.48,0v3a14,14,0,0,1-.08,1.62h2.48a2.19,2.19,0,0,0,1.59-.64,2.68,2.68,0,0,0,.66-2h1.2l-.1,4.06h-9.74Z"/><path class="cls-1" d="M357.38,290.54a6.3,6.3,0,0,1-1.57-.67h0l0,.78h-1.42v-4.32h1.22a3.76,3.76,0,0,0,1.16,2.32,3.35,3.35,0,0,0,2.25.8,2.45,2.45,0,0,0,1.59-.51,1.53,1.53,0,0,0,.63-1.23,1.38,1.38,0,0,0-.42-1,3.12,3.12,0,0,0-.92-.66c-.34-.16-.88-.39-1.61-.69a9.56,9.56,0,0,1-3.11-1.84,3.58,3.58,0,0,1-1.08-2.71,3.49,3.49,0,0,1,.42-1.65,3.37,3.37,0,0,1,1.4-1.34,5.06,5.06,0,0,1,2.5-.54,6.69,6.69,0,0,1,1.66.23,4.41,4.41,0,0,1,1.43.66h0l-.07-.76h1.44v4.3h-1.22a4,4,0,0,0-1.06-2.31,2.92,2.92,0,0,0-2.09-.79,2.3,2.3,0,0,0-1.43.45,1.37,1.37,0,0,0-.6,1.14,1.67,1.67,0,0,0,.68,1.36,9.36,9.36,0,0,0,2.31,1.22,11.06,11.06,0,0,1,3,1.71,3.16,3.16,0,0,1,1.17,2.57,3.34,3.34,0,0,1-.59,1.94,3.94,3.94,0,0,1-1.66,1.32,6.15,6.15,0,0,1-2.47.47A6.06,6.06,0,0,1,357.38,290.54Z"/><path class="cls-1" d="M382.22,289.91a6,6,0,0,1-2.23-2.37,7,7,0,0,1-.79-3.33,7.77,7.77,0,0,1,.75-3.35,6.28,6.28,0,0,1,2.2-2.59,6.08,6.08,0,0,1,3.5-1,5.92,5.92,0,0,1,1.6.24,6.37,6.37,0,0,1,1.58.67h0l-.08-.78h1.42v4.3H389q-.5-3.06-3.1-3.1a3.1,3.1,0,0,0-2.09.73,4.4,4.4,0,0,0-1.28,1.93,7.76,7.76,0,0,0-.43,2.58,7.94,7.94,0,0,0,.47,2.82,4.29,4.29,0,0,0,1.32,1.93,3.27,3.27,0,0,0,2.09.69,4.78,4.78,0,0,0,2.31-.61,5.54,5.54,0,0,0,1.91-1.66l.89.82a6.74,6.74,0,0,1-2.68,2.31,7.21,7.21,0,0,1-2.87.64A6.27,6.27,0,0,1,382.22,289.91Z"/><path class="cls-1" d="M393.66,289.26a2.36,2.36,0,0,0,.76-.12.74.74,0,0,0,.4-.43,2.71,2.71,0,0,0,.15-1v-7.07a14.91,14.91,0,0,1,.07-1.66l-1.38.06v-1.42h9.22l.11,3.58h-1.21a2.3,2.3,0,0,0-.66-1.89,2.25,2.25,0,0,0-1.58-.49l-.66,0a2.1,2.1,0,0,0-.7.12.73.73,0,0,0-.4.45,3,3,0,0,0-.13,1v2.77h2.15c0-.21,0-.75-.07-1.61h1.42V286h-1.22a1.94,1.94,0,0,0-.23-1.09,1,1,0,0,0-.6-.45,3.36,3.36,0,0,0-1-.09l-.47,0v3a14,14,0,0,1-.08,1.62H400a2.19,2.19,0,0,0,1.6-.64,2.68,2.68,0,0,0,.65-2h1.2l-.09,4.06h-9.74Z"/><path class="cls-1" d="M406.66,289.26a2.26,2.26,0,0,0,.76-.12.76.76,0,0,0,.41-.43,2.71,2.71,0,0,0,.15-1v-7.07a14.91,14.91,0,0,1,.07-1.66l-1.39.06v-1.42l5.24,0a7,7,0,0,1,3.91.89,3.26,3.26,0,0,1,1.37,2.93,3.42,3.42,0,0,1-.82,2.26,4.79,4.79,0,0,1-2.43,1.45v0a2,2,0,0,1,.69.45,3.33,3.33,0,0,1,.59.71l.86,1.29a7,7,0,0,0,1.05,1.35,1.54,1.54,0,0,0,1,.38v1.22h-3a3,3,0,0,1-.63-.64,11.46,11.46,0,0,1-.72-1.09l-1.37-2.22a6.7,6.7,0,0,0-.77-1.07h-1v2c0,.7,0,1.26-.07,1.68q.59-.06,1.56-.06v1.42h-5.48Zm7.06-5.8a2.87,2.87,0,0,0,.67-2.11,2.24,2.24,0,0,0-.78-2,3.17,3.17,0,0,0-1.72-.5,1.34,1.34,0,0,0-.94.28,1.64,1.64,0,0,0-.3,1.18v3.78a7.07,7.07,0,0,0,.88.08A3,3,0,0,0,413.72,283.46Z"/><path class="cls-1" d="M423.21,289.26a2.31,2.31,0,0,0,.76-.12.71.71,0,0,0,.4-.43,2.71,2.71,0,0,0,.15-1v-8.84h-.85a2.11,2.11,0,0,0-1.68.74,3.42,3.42,0,0,0-.59,2.18h-1.21l.09-4.17h11.18l.11,4.17h-1.22a3.49,3.49,0,0,0-.6-2.21,2,2,0,0,0-1.67-.73h-.88v8.66a11.53,11.53,0,0,1-.08,1.66c.41,0,.9-.06,1.48-.06v1.42h-5.39Z"/><path class="cls-1" d="M434.3,289.26a2.24,2.24,0,0,0,.75-.12.73.73,0,0,0,.41-.43,2.71,2.71,0,0,0,.15-1v-7.07a14.91,14.91,0,0,1,.07-1.66l-1.38.06v-1.42h5.29v1.22a2.24,2.24,0,0,0-.75.12.73.73,0,0,0-.41.43,2.71,2.71,0,0,0-.15,1.05v7.07a14.91,14.91,0,0,1-.07,1.66,13.74,13.74,0,0,1,1.38-.06v1.42H434.3Z"/><path class="cls-1" d="M442.93,289.26a2.36,2.36,0,0,0,.76-.12.74.74,0,0,0,.4-.43,2.71,2.71,0,0,0,.15-1v-7.07c0-.68,0-1.24.07-1.66l-1.38.06v-1.42h9.22l.12,3.58h-1.22a2.3,2.3,0,0,0-.66-1.89,2.24,2.24,0,0,0-1.57-.49l-.67,0a2.1,2.1,0,0,0-.7.12.73.73,0,0,0-.4.45,3,3,0,0,0-.13,1v3.21h1.9c0-.16,0-.69-.08-1.59h1.42v4.49h-1.22a2,2,0,0,0-.23-1.1,1,1,0,0,0-.6-.45,3.9,3.9,0,0,0-1-.08h-.22v2.59a14.55,14.55,0,0,1-.08,1.66c.4,0,.94-.06,1.64-.06v1.42h-5.55Z"/><path class="cls-1" d="M455,289.26a2.24,2.24,0,0,0,.75-.12.73.73,0,0,0,.41-.43,2.71,2.71,0,0,0,.15-1v-7.07a14.91,14.91,0,0,1,.07-1.66L455,279v-1.42h5.29v1.22a2.24,2.24,0,0,0-.75.12.73.73,0,0,0-.41.43,2.71,2.71,0,0,0-.15,1.05v7.07a14.91,14.91,0,0,1-.07,1.66,13.74,13.74,0,0,1,1.38-.06v1.42H455Z"/><path class="cls-1" d="M463.59,289.26a2.31,2.31,0,0,0,.76-.12.71.71,0,0,0,.4-.43,2.71,2.71,0,0,0,.15-1v-7.07a14.55,14.55,0,0,1,.08-1.66l-1.39.06v-1.42h9.23l.11,3.58h-1.22a2.3,2.3,0,0,0-.66-1.89,2.24,2.24,0,0,0-1.57-.49l-.67,0a2.1,2.1,0,0,0-.7.12.73.73,0,0,0-.4.45,3,3,0,0,0-.13,1v2.77h2.16c0-.21,0-.75-.08-1.61h1.42V286h-1.22a1.94,1.94,0,0,0-.23-1.09,1,1,0,0,0-.6-.45,3.32,3.32,0,0,0-1-.09l-.48,0v3a14,14,0,0,1-.08,1.62H470a2.19,2.19,0,0,0,1.6-.64,2.68,2.68,0,0,0,.66-2h1.19l-.09,4.06h-9.74Zm3.65-13.52,2.05-2.17a1.62,1.62,0,0,1,.46-.33,1.27,1.27,0,0,1,.52-.12,1,1,0,0,1,.81.41,1,1,0,0,1,.19.55,1.16,1.16,0,0,1-.22.66,1.72,1.72,0,0,1-.52.52l-2.62,1.39Z"/><path class="cls-1" d="M479.72,290.54a6.3,6.3,0,0,1-1.57-.67h0l.05.78h-1.42v-4.32H478a3.76,3.76,0,0,0,1.16,2.32,3.35,3.35,0,0,0,2.25.8,2.45,2.45,0,0,0,1.59-.51,1.53,1.53,0,0,0,.63-1.23,1.38,1.38,0,0,0-.42-1,3.25,3.25,0,0,0-.92-.66c-.34-.16-.88-.39-1.61-.69a9.56,9.56,0,0,1-3.11-1.84,3.58,3.58,0,0,1-1.08-2.71,3.49,3.49,0,0,1,.42-1.65,3.34,3.34,0,0,1,1.39-1.34,5.12,5.12,0,0,1,2.5-.54,6.56,6.56,0,0,1,1.66.23,4.37,4.37,0,0,1,1.44.66h0l-.07-.76h1.44v4.3h-1.22a4,4,0,0,0-1.06-2.31,2.93,2.93,0,0,0-2.09-.79,2.3,2.3,0,0,0-1.43.45,1.37,1.37,0,0,0-.6,1.14,1.67,1.67,0,0,0,.68,1.36,9.45,9.45,0,0,0,2.3,1.22,11,11,0,0,1,3,1.71,3.16,3.16,0,0,1,1.17,2.57,3.34,3.34,0,0,1-.59,1.94,3.94,3.94,0,0,1-1.66,1.32,6.15,6.15,0,0,1-2.47.47A6.06,6.06,0,0,1,479.72,290.54Z"/><path class="cls-1" d="M118.08,256.42l-2.54-19.85s-14,2.61-22.14-6.09c0,0-6.51-5.49-4.42-22.4l-63.31,8.09A22.74,22.74,0,0,0,6,241.6l3.67,28.68A22.73,22.73,0,0,0,35.1,289.94l63.32-8.1A22.72,22.72,0,0,0,118.08,256.42Zm-40.77,7.76a21.63,21.63,0,0,1-10.74,4.21A24.68,24.68,0,0,1,55,267.33a19.13,19.13,0,0,1-4.44-34.09,25.1,25.1,0,0,1,10.92-3.94,21.5,21.5,0,0,1,11.45,1.32,15.41,15.41,0,0,1,7.63,6.77L71,244q-3.24-4.76-8.2-4.11A8,8,0,0,0,57.2,243a9,9,0,0,0-1.49,6.86,9.27,9.27,0,0,0,3.21,6.37,7.94,7.94,0,0,0,6.21,1.63q5-.64,6.87-6.07l10.94,3.9A15.29,15.29,0,0,1,77.31,264.18Z"/></svg>