<svg id="logo_delachpl" data-name="Calque 1" xmlns="http://www.w3.org/2000/svg" viewBox="0 0 1590.38 400"><defs></defs><title>DELACHPL_LOGO_LONG_NOIR_VECTORIEL</title>
    <g class="cls-1">
        <path class="cls-2" d="M184.32,249.72v-100h34.05c10,0,26.85,1.35,39.75,13.8,11.7,11.25,13.95,25.65,13.95,36.45,0,13.19-3.3,24.89-13.05,34.64-7.95,8-21.3,15.15-38.4,15.15Zm26-22.05h5.25c6.3,0,15.15-.6,21.9-7.2,3.3-3.15,7.65-9.45,7.65-20.54,0-9.3-2.85-17.25-7.8-21.9-6.15-5.7-14.25-6.3-20.7-6.3h-6.3Z"/>
        <path class="cls-2" d="M420.42,171.73h-30.9v16.65h29.25v22H389.52v17.25h30.9v22.05H363.57v-100h56.85Z"/>
        <path class="cls-2" d="M537.87,149.68v78h31.2v22.05H511.92v-100Z"/>
        <path class="cls-2" d="M718.46,232.92H682.17l-6.75,16.8H648l38.4-100h28.34l37.65,100H724.61Zm-6.9-19.8-11.25-32.39-10.94,32.39Z"/>
        <path class="cls-2" d="M907,247c-10.35,3.75-16,4.95-22.5,4.95-17.4,0-30.45-6.9-38.69-15a52.49,52.49,0,0,1-15.15-36.45A52.49,52.49,0,0,1,883.61,148c4.8,0,12.6.75,23.4,5.1v31.05c-8.4-10.35-18.3-11-22.65-11-7.5,0-13.2,2.25-18,6.6a27.93,27.93,0,0,0-8.69,20.55,27.59,27.59,0,0,0,8.09,19.49,27.94,27.94,0,0,0,18.6,6.9c3.9,0,13.5-.45,22.65-10.5Z"/>
        <path class="cls-2" d="M1024.46,187H1062V149.68h26.1v100H1062V209.23h-37.5v40.49h-26v-100h26Z"/>
        <path class="cls-2" d="M1210,216.57v33.15h-26v-100h41.4c8.7,0,17.7,1.65,25.35,9,7.8,7.5,9.3,15.9,9.3,24.3,0,8-1,17.25-8.85,24.89s-17.1,8.7-24.9,8.7Zm0-21h8.7c2.7,0,7.8-.31,11-3.15s3.3-6.75,3.3-9.15c0-2.7-.3-6.3-3-9-3-3.15-7.8-3.6-11.1-3.6H1210Z"/>
        <path class="cls-2" d="M1374.86,149.68v78h31.2v22.05h-57.15v-100Z"/>
    </g>
</svg>