<svg xmlns="http://www.w3.org/2000/svg" width="275.787" height="548.255" viewBox="0 0 275.787 548.255">
  <path id="Union_1" data-name="Union 1" d="M47,547.253a44.814,44.814,0,0,1-31.583-12.926A43.974,43.974,0,0,1,5.846,520.3a43.369,43.369,0,0,1-3.509-17.179V209.6H.631A.633.633,0,0,1,0,208.961V168.442a.633.633,0,0,1,.631-.632H2.337v-7.952H.631A.629.629,0,0,1,0,159.23V118.7a.633.633,0,0,1,.631-.632H2.337V92.607H.631A.632.632,0,0,1,0,91.977V77.433A.632.632,0,0,1,.631,76.8H2.337V44.132A43.383,43.383,0,0,1,5.846,26.953a44.017,44.017,0,0,1,9.57-14.029A44.825,44.825,0,0,1,47,0H230.121a44.825,44.825,0,0,1,31.584,12.926,44.017,44.017,0,0,1,9.57,14.029,43.4,43.4,0,0,1,3.512,17.179V503.119a43.388,43.388,0,0,1-3.512,17.179,43.974,43.974,0,0,1-9.57,14.029,44.814,44.814,0,0,1-31.584,12.926ZM13.273,48.367V498.884a37.586,37.586,0,0,0,37.543,37.543H226.308a37.587,37.587,0,0,0,37.543-37.543V48.367a37.587,37.587,0,0,0-37.543-37.543H203.681c-.858.295-129.383.295-130.241,0H50.816A37.586,37.586,0,0,0,13.273,48.367Z" transform="translate(0.5 0.502)" stroke="rgba(0,0,0,0)" stroke-miterlimit="10" stroke-width="1"/>
</svg>
