<svg id="Calque_1" data-name="Calque 1" xmlns="http://www.w3.org/2000/svg" viewBox="0 0 500 500"><defs><style>.cls-1{fill:#303030;}</style></defs><title>sandrine_guilleray copie</title><path class="cls-1" d="M201.08,178.17a50.47,50.47,0,0,0,11.46,8.66q4.72,2.59,20.74,8,16.28,5.63,21.56,8.4a50.51,50.51,0,0,1,11.84,8.33c.36.35.66.74,1,1.1,6.7.4,19.09,1,25.26.4a37.75,37.75,0,0,0-3.8-10.48q-4.59-9.42-15-16.63T237.29,169.9q-14.55-5.06-20.07-9.13a29,29,0,0,1-8.8-10.83q-6.13-12.6-.66-27.79t19.43-22q9-4.38,17-1.29T257,111.76c2.23,4.57,17.44,40.83,20.84,50.18l12,5.9c-5.28-15.37-26.37-64.14-27.73-69.51-.17-.68-.34-1.37-.5-2.07a153.89,153.89,0,0,1-2.76-15.62q-5.15,1.73-12.38,3.67a108.42,108.42,0,0,0-20.63,7.07q-15.78,7.68-24.8,20.65A64.08,64.08,0,0,0,190,140.5q-2,15.5,3.59,27.07A40.66,40.66,0,0,0,201.08,178.17Z"/><path class="cls-1" d="M274.71,226c1,5,1.59,20.38-1.75,28.64a51.14,51.14,0,0,1-25.81,27.78,28.58,28.58,0,0,1-12.47,3A24,24,0,0,1,223.51,283q-4.81-2.44-11.07-10.11-5.25-6.25-8-7.42a9.75,9.75,0,0,0-8.79,0,10.8,10.8,0,0,0-5.65,7.31,15.1,15.1,0,0,0,1.28,10.87q5.09,10.43,22.07,13.8t35-5.43a84.6,84.6,0,0,0,30.73-25.28c8.55-11.29,17.33-20.7,14.89-32.33C289.43,229.73,281.13,223.84,274.71,226Z"/><path class="cls-1" d="M303.23,297.77c-5.37,1.54-9.4,2.57-12.05,3.1-1.48.3-3.75.71-6.79,1.24-3.94.64-7.25,1.22-9.91,1.75a56.37,56.37,0,0,0-9.68,2.85l.08,5.64c4.44-1.27,7.24-2,8.42-2.27,3.48-.69,6-.64,7.59.16a5.39,5.39,0,0,1,2.92,4q1.15,5.78-.47,24.18a52.63,52.63,0,0,1-11.66,8.27A51.37,51.37,0,0,1,258,351.4q-12.3,2.46-24.19-5.42t-16.07-28.81a83,83,0,0,1-1.55-13.9,64.23,64.23,0,0,1-18.93-6.63,84.11,84.11,0,0,0,1.18,25.43q4.91,24.58,22.61,35.33,13.24,8.07,32.76,4.17a60,60,0,0,0,15-5.12,69.73,69.73,0,0,0,13.65-9q-2.73,41.12-11.45,54a17.09,17.09,0,0,1-11.22,7.89,12.89,12.89,0,0,1-6.84-.48q-3.4-1.15-10-6.06-5.83-4.38-9.59-3.62a7.44,7.44,0,0,0-5.66,8.62c.73,3.69,3.71,6.78,8.91,9.23s11.5,2.95,18.87,1.48a44.58,44.58,0,0,0,22.86-12.23q9.81-9.63,15.28-28.3t7.05-58.28q.48-11,2.33-14c1.24-2,3.73-3.3,7.48-4l.09-5.89C308.52,296.33,306.07,297,303.23,297.77Z"/><path class="cls-1" d="M213.92,269.51s2.9,3.54,5.88,6.6l.12-.47Q226.18,254.7,239.8,241t29.26-16.84q11.29-2.25,20.38,3.08t12.06,20.3a91.81,91.81,0,0,1,1.28,9.31l6-1.2q-3.45-17.28-1.56-39.56-7,1.27-21,1a106.57,106.57,0,0,0-23.78,1.52q-18.18,3.63-35.86,20.41A97.28,97.28,0,0,0,207.89,263,57.63,57.63,0,0,1,213.92,269.51Z"/></svg>