<svg id="Calque_1" data-name="Calque 1" xmlns="http://www.w3.org/2000/svg" viewBox="0 0 500 500"><defs><style>.cls-1{fill:#303030;}</style></defs><title>verbateam_avocats copie</title><path class="cls-1" d="M205.32,170.3c-1.4-3.5-3.15-7.94-7.59-7.94H195.4V159h29.87v3.38h-4.2c-2.1,0-4.67.7-4.67,3.39,0,1.75,2.1,8.16,3.5,11.9l19.25,50.17,21.24-55.77a20.48,20.48,0,0,0,1.4-6.42c0-2.1-1.75-3.27-5.25-3.27H252V159h23.8v3.38h-2.45c-3.85,0-7.35,9-9,13.07l-26.13,68.49h-4.55Z"/><path class="cls-1" d="M44.24,309.59c-.57-1.73-1.17-3.34-1.77-4.84l-6.9-17.26a42.32,42.32,0,0,0-1.74-4.09c-.17-.23-.72-.34-1.66-.34h-.79v-1.22c2,.09,3.72.14,5.13.14s3.26-.05,5.34-.14v1.22H39.94a2.78,2.78,0,0,0-1.26.18.61.61,0,0,0-.29.57,2.09,2.09,0,0,0,.09.57l2.5,6.67,5.25,13.37,5.1-12.75q2.55-6.39,2.55-7.47c0-.59-.35-.89-1.06-.92l-.78,0-1.66-.17v-1.22c1.71.09,3.11.14,4.21.14s2.6-.05,4.34-.14v1.22h-.77a1.8,1.8,0,0,0-1.34.43,14.61,14.61,0,0,0-1.49,3.07l-6.5,15.87a73.72,73.72,0,0,0-2.6,7.16Z"/><path class="cls-1" d="M68.17,296.17v4.73l0,2.72c0,1.7,0,2.94.06,3.73q2.82.21,6,.21a28.3,28.3,0,0,0,3.63-.19,9.83,9.83,0,0,0,2-.5c.32-1.13.65-2.55,1-4.24h1.27q-.52,4.23-.52,5.64l0,.87c-1.48.13-2.93.2-4.36.2l-3-.06q-5-.13-7.36-.14t-6,.14v-1.22h.6a4.29,4.29,0,0,0,2.11-.32,2.34,2.34,0,0,0,.58-1.55c.09-.81.14-2.59.14-5.36V290.25q0-2.61-.12-4.26a9.75,9.75,0,0,0-.27-2,1.13,1.13,0,0,0-.42-.49,5.12,5.12,0,0,0-1.66-.31l-1.48-.15v-1.22h2.08l2,.07c1.14,0,2,.07,2.6.07l7.4-.12,3.51,0c1.2,0,2.41,0,3.63.14a21.32,21.32,0,0,0-.81,5.95H79.59a24.23,24.23,0,0,0-.22-3.52,16,16,0,0,0-5.59-.85c-1.76,0-3.6.07-5.53.23,0,1.2,0,2.41,0,3.62l0,3v3.91c1.27.09,2.4.13,3.38.13,3.06,0,4.79-.1,5.19-.32s.61-.87.61-2v-1.25h1.31c-.09,1.94-.14,3.48-.14,4.64s0,2.66.14,4.32H77.35v-1.12c0-1.23-.24-2-.72-2.26s-2.19-.42-5.1-.42C70.45,296,69.33,296.08,68.17,296.17Z"/><path class="cls-1" d="M98.75,295.36q1.89,2.72,4.69,6.32l3.7,4.8a6.93,6.93,0,0,0,1.31,1.41,1.36,1.36,0,0,0,.67.17h.5v1.22c-1.06-.09-2-.14-2.79-.14a21.18,21.18,0,0,0-2.32.14l-6.82-9.22c-1.27-1.7-2.64-3.35-4.09-5l.2-.66c.74.07,1.29.1,1.65.1a7.22,7.22,0,0,0,5-1.66,5.72,5.72,0,0,0,1.82-4.44,5,5,0,0,0-1.54-3.88,6.45,6.45,0,0,0-4.46-1.4,11.78,11.78,0,0,0-4.07.75c-.15,2.05-.23,4.23-.23,6.56v9.31q0,6.81.33,7.55c.22.5.92.74,2.12.74H96v1.22c-2.13-.09-3.9-.14-5.3-.14q-1.65,0-6,.14v-1.22h1.44c1.11,0,1.76-.24,2-.72s.31-3,.31-7.61v-9.27c0-4-.12-6.22-.36-6.69s-1-.71-2.32-.71h-1v-1.22c2.39.09,4.21.14,5.47.14.85,0,2.07,0,3.66-.1,1.86-.06,3.19-.1,4-.1a14,14,0,0,1,5.06.71,5.29,5.29,0,0,1,3.52,5.21,6.83,6.83,0,0,1-2,4.8A10.53,10.53,0,0,1,98.75,295.36Z"/><path class="cls-1" d="M124.76,293.76c2.76.18,4.76.82,6,1.92a5.83,5.83,0,0,1,1.83,4.57,8.16,8.16,0,0,1-3.08,6.35,11.43,11.43,0,0,1-7.81,2.68l-1.53,0c-1.28-.06-2.37-.09-3.26-.09-.64,0-1.43,0-2.37.08l-1.6.06v-.87a4.49,4.49,0,0,0,1.42-.89,2,2,0,0,0,.26-1c.09-1.53.13-3.27.13-5.22v-12c0-3.21-.11-5-.34-5.45s-1-.75-2.07-.75H111v-1.22h1.6l1.78.07c.92,0,1.65.07,2.18.07q1.22,0,4.8-.12l2.81-.08a8.67,8.67,0,0,1,5,1.16,4.83,4.83,0,0,1,2.06,4.17,5.7,5.7,0,0,1-1.45,3.87A11.08,11.08,0,0,1,124.76,293.76Zm-6.4-.54c.64,0,1.23,0,1.77,0q3.84,0,5.5-1.35a4.82,4.82,0,0,0,1.66-3.93,4.24,4.24,0,0,0-1.39-3.4,6.79,6.79,0,0,0-4.44-1.19,19.76,19.76,0,0,0-2.93.25q-.16,2.36-.17,7.12Zm0,14.13a20.53,20.53,0,0,0,3,.27,7.31,7.31,0,0,0,5.29-1.82,7.49,7.49,0,0,0,1-8.39,4.85,4.85,0,0,0-2.32-2,13.5,13.5,0,0,0-4.77-.62q-1,0-2.22.06v6.84l0,2.43c0,.87.06,1.54.06,2A11.62,11.62,0,0,1,118.36,307.35Z"/><path class="cls-1" d="M151.54,300H140.39l-1.31,3.11a15.64,15.64,0,0,0-1.29,3.78.77.77,0,0,0,.24.63,2.92,2.92,0,0,0,1.22.31l1.85.21v1.22c-1.23-.09-2.62-.14-4.16-.14-1.85,0-3.48.05-4.88.14v-1.22l.58,0a4.17,4.17,0,0,0,1.75-.28,2.75,2.75,0,0,0,.83-1.18q1.38-2.77,2.8-6l5.3-12q2.13-4.79,2.89-6.94h1.32l9.75,22.69a23.76,23.76,0,0,0,1.31,2.79,2,2,0,0,0,.75.67,6.1,6.1,0,0,0,1.91.28v1.22c-1.67-.09-3.26-.14-4.78-.14s-3.29.05-5.65.14v-1.22l1.91-.11a3.75,3.75,0,0,0,1.22-.21.66.66,0,0,0,.28-.54,7.71,7.71,0,0,0-.57-1.82Zm-10.43-1.58h9.71L146,286.86Z"/><path class="cls-1" d="M173,283.6q-.21,2.88-.21,6.09v11q0,6.13.3,6.76c.21.41.94.62,2.2.62h1.45v1.22c-2.28-.09-4.2-.14-5.79-.14s-3.51.05-5.74.14v-1.22h1.62a2.7,2.7,0,0,0,1.66-.34,2,2,0,0,0,.48-1.31q.19-2.27.19-5.83v-11q0-3.26-.13-6h-2a28.41,28.41,0,0,0-5.23.22c-.32.15-.53.72-.63,1.72l-.27,2.59h-1.22l0-2.3c0-.92-.08-2.25-.23-4Q170,282,171.8,282l10.67-.14q-.37,3.26-.43,6.29h-1.21l-.2-2.53a3.58,3.58,0,0,0-.32-1.55,1.47,1.47,0,0,0-.95-.3c-1.41-.1-3-.15-4.82-.15Z"/><path class="cls-1" d="M191.86,296.17v4.73l0,2.72c0,1.7,0,2.94.05,3.73q2.82.21,6,.21a28.4,28.4,0,0,0,3.63-.19,9.83,9.83,0,0,0,2-.5c.32-1.13.65-2.55,1-4.24h1.27c-.34,2.82-.52,4.7-.52,5.64l0,.87c-1.48.13-2.93.2-4.36.2l-3-.06c-3.35-.09-5.8-.14-7.37-.14s-3.5.05-6,.14v-1.22h.59a4.29,4.29,0,0,0,2.11-.32,2.29,2.29,0,0,0,.58-1.55c.1-.81.15-2.59.15-5.36V290.25c0-1.74,0-3.16-.13-4.26a8.4,8.4,0,0,0-.27-2,1,1,0,0,0-.41-.49,5.2,5.2,0,0,0-1.66-.31l-1.49-.15v-1.22h2.09l2,.07c1.14,0,2,.07,2.6.07l7.41-.12,3.51,0c1.19,0,2.4,0,3.62.14a21.32,21.32,0,0,0-.81,5.95h-1.31a24.41,24.41,0,0,0-.21-3.52,16,16,0,0,0-5.59-.85c-1.76,0-3.61.07-5.54.23,0,1.2,0,2.41,0,3.62l0,3v3.91c1.27.09,2.39.13,3.37.13,3.06,0,4.79-.1,5.2-.32s.6-.87.6-2v-1.25h1.32c-.09,1.94-.14,3.48-.14,4.64s0,2.66.14,4.32H201v-1.12c0-1.23-.24-2-.72-2.26s-2.18-.42-5.1-.42C194.13,296,193,296.08,191.86,296.17Z"/><path class="cls-1" d="M227.45,300H216.3L215,303.13a15.64,15.64,0,0,0-1.29,3.78.77.77,0,0,0,.24.63,2.93,2.93,0,0,0,1.23.31l1.85.21v1.22c-1.24-.09-2.62-.14-4.17-.14-1.85,0-3.47.05-4.87.14v-1.22l.57,0a4.17,4.17,0,0,0,1.75-.28,2.83,2.83,0,0,0,.84-1.18q1.37-2.77,2.79-6l5.31-12q2.12-4.79,2.89-6.94h1.31l9.75,22.69a23.11,23.11,0,0,0,1.32,2.79,1.89,1.89,0,0,0,.75.67,6,6,0,0,0,1.91.28v1.22c-1.67-.09-3.27-.14-4.78-.14s-3.3.05-5.65.14v-1.22l1.9-.11a3.68,3.68,0,0,0,1.22-.21.68.68,0,0,0,.29-.54,7.45,7.45,0,0,0-.58-1.82ZM217,298.44h9.71l-4.85-11.58Z"/><path class="cls-1" d="M267.13,286l-5.73,11.93q-3.22,6.72-5.29,11.73h-.77q-.72-1.71-4.09-8.82l-6.91-14.3v14.91q0,5.21.42,5.91c.27.47,1.14.7,2.58.7h.72v1.22c-1.79-.09-3.25-.14-4.37-.14-.81,0-2.42.05-4.85.14v-1.22h1.26a2.75,2.75,0,0,0,1.69-.36,1.94,1.94,0,0,0,.52-1.33q.25-2.7.25-5.83V289.63a47.71,47.71,0,0,0-.17-5.22,1.36,1.36,0,0,0-.57-1,3.76,3.76,0,0,0-1.95-.34h-1v-1.22c2.24.09,3.65.14,4.23.14.73,0,1.77-.05,3.12-.14q2.34,5.19,5.39,11.44l5.07,10.44,4.69-9.67q2.48-5.07,5.63-12.21c1.61.09,2.74.14,3.4.14s2.13-.05,4.11-.14v1.22h-1.27c-1.13,0-1.83.19-2.08.58s-.38,1.81-.38,4.24V302c0,3.14.14,4.94.4,5.4s1,.69,2.22.69h1.11v1.22c-1.79-.09-3.5-.14-5.13-.14-1.8,0-3.69.05-5.65.14v-1.22H265c1,0,1.63-.22,1.84-.66s.32-2.35.32-5.72Z"/><path class="cls-1" d="M301,300H289.81l-1.3,3.11a15.64,15.64,0,0,0-1.29,3.78.77.77,0,0,0,.24.63,2.92,2.92,0,0,0,1.22.31l1.85.21v1.22c-1.23-.09-2.62-.14-4.16-.14-1.85,0-3.48.05-4.88.14v-1.22l.58,0a4.08,4.08,0,0,0,1.74-.28,2.67,2.67,0,0,0,.84-1.18c.91-1.85,1.85-3.85,2.8-6l5.3-12c1.41-3.19,2.38-5.5,2.89-6.94H297l9.76,22.69a22.12,22.12,0,0,0,1.31,2.79,2,2,0,0,0,.75.67,6,6,0,0,0,1.91.28v1.22c-1.67-.09-3.26-.14-4.78-.14s-3.3.05-5.65.14v-1.22l1.91-.11a3.66,3.66,0,0,0,1.21-.21.65.65,0,0,0,.29-.54,7.45,7.45,0,0,0-.58-1.82Zm-10.44-1.58h9.72l-4.86-11.58Z"/><path class="cls-1" d="M320.89,309.59q-.87-2.59-1.78-4.84l-6.9-17.26a42.32,42.32,0,0,0-1.74-4.09c-.16-.23-.72-.34-1.66-.34H308v-1.22c2,.09,3.72.14,5.13.14s3.26-.05,5.34-.14v1.22h-1.9a2.8,2.8,0,0,0-1.27.18.63.63,0,0,0-.29.57,1.8,1.8,0,0,0,.1.57l2.49,6.67,5.25,13.37,5.1-12.75q2.55-6.39,2.55-7.47c0-.59-.35-.89-1-.92l-.79,0-1.66-.17v-1.22c1.71.09,3.11.14,4.21.14s2.6-.05,4.35-.14v1.22h-.77a1.77,1.77,0,0,0-1.34.43,13.91,13.91,0,0,0-1.5,3.07l-6.5,15.87c-1.22,3-2.08,5.37-2.6,7.16Z"/><path class="cls-1" d="M336.51,295.55a13.41,13.41,0,0,1,4.09-10.22q4.09-3.87,10.9-3.87T362,285.05a12.54,12.54,0,0,1,3.79,9.55,14.46,14.46,0,0,1-4.4,10.74,15.18,15.18,0,0,1-11.09,4.32,14.57,14.57,0,0,1-7.22-1.69,12.17,12.17,0,0,1-4.78-5A15.48,15.48,0,0,1,336.51,295.55Zm3.92-1.58a17.91,17.91,0,0,0,1.49,7.59,11.12,11.12,0,0,0,4,4.84,10.39,10.39,0,0,0,5.73,1.61,9.88,9.88,0,0,0,5.23-1.37,9.36,9.36,0,0,0,3.52-4.09,15.49,15.49,0,0,0,1.28-6.61,15.7,15.7,0,0,0-1.42-7,10,10,0,0,0-3.88-4.37,11.24,11.24,0,0,0-5.85-1.47,10.4,10.4,0,0,0-5.33,1.3,8.94,8.94,0,0,0-3.51,3.78A12.55,12.55,0,0,0,340.43,294Z"/><path class="cls-1" d="M392.61,288.8l-.16-3.43a13.54,13.54,0,0,0-3.59-1.7,13.83,13.83,0,0,0-3.93-.56,11.22,11.22,0,0,0-8.34,3.17,11.46,11.46,0,0,0-3.13,8.46,13.6,13.6,0,0,0,1.59,6.63,11.78,11.78,0,0,0,4.52,4.61,12.21,12.21,0,0,0,6.19,1.7,22,22,0,0,0,5.11-.6,10.51,10.51,0,0,0,3.8-1.85l.4.38c-.27.6-.52,1.19-.75,1.8a22.13,22.13,0,0,1-4.54,1.68,18.88,18.88,0,0,1-4.6.57,18.09,18.09,0,0,1-8.33-1.83,13.31,13.31,0,0,1-5.53-5.06,13.92,13.92,0,0,1-1.93-7.3,13.75,13.75,0,0,1,1.95-7.28,13,13,0,0,1,5.51-5,19.48,19.48,0,0,1,8.74-1.76,27.43,27.43,0,0,1,6.36.88c1.21.29,2.19.5,2.95.64a17.07,17.07,0,0,0-1,5.82Z"/><path class="cls-1" d="M414.89,300H403.74l-1.31,3.11a15.64,15.64,0,0,0-1.29,3.78.77.77,0,0,0,.24.63,2.93,2.93,0,0,0,1.23.31l1.85.21v1.22c-1.24-.09-2.62-.14-4.17-.14-1.85,0-3.48.05-4.88.14v-1.22l.58,0a4.17,4.17,0,0,0,1.75-.28,2.83,2.83,0,0,0,.84-1.18q1.37-2.77,2.79-6l5.3-12c1.42-3.19,2.38-5.5,2.9-6.94h1.31l9.75,22.69a23.11,23.11,0,0,0,1.32,2.79,1.83,1.83,0,0,0,.75.67,6,6,0,0,0,1.91.28v1.22c-1.68-.09-3.27-.14-4.79-.14s-3.29.05-5.65.14v-1.22l1.91-.11a3.75,3.75,0,0,0,1.22-.21.68.68,0,0,0,.29-.54,8,8,0,0,0-.58-1.82Zm-10.43-1.58h9.71l-4.85-11.58Z"/><path class="cls-1" d="M436.79,283.6q-.23,2.88-.22,6.09v11c0,4.09.11,6.34.31,6.76s.94.62,2.2.62h1.45v1.22c-2.28-.09-4.21-.14-5.79-.14s-3.51.05-5.74.14v-1.22h1.62a2.67,2.67,0,0,0,1.65-.34,2,2,0,0,0,.49-1.31c.12-1.51.19-3.45.19-5.83v-11q0-3.26-.14-6h-2a28.33,28.33,0,0,0-5.23.22c-.32.15-.53.72-.63,1.72l-.27,2.59H423.5l0-2.3c0-.92-.08-2.25-.23-4q10.41.14,12.24.14l10.66-.14q-.36,3.26-.42,6.29h-1.21l-.2-2.53a3.37,3.37,0,0,0-.33-1.55,1.44,1.44,0,0,0-.94-.3c-1.41-.1-3-.15-4.82-.15Z"/><path class="cls-1" d="M466.94,283.13a22.38,22.38,0,0,0-.58,5.32H465v-1.54a3.63,3.63,0,0,0-.4-2,5,5,0,0,0-2.12-1.15,10.7,10.7,0,0,0-3.59-.61,7.07,7.07,0,0,0-4.85,1.56,5.1,5.1,0,0,0-1.76,4,4.72,4.72,0,0,0,.72,2.64,4.08,4.08,0,0,0,2,1.6,22.59,22.59,0,0,0,5.19.87,19.45,19.45,0,0,1,5.37,1,5,5,0,0,1,2.24,2,6.42,6.42,0,0,1,.84,3.34,8.55,8.55,0,0,1-3.24,6.68,12.78,12.78,0,0,1-8.64,2.79,19,19,0,0,1-3.73-.37,23.17,23.17,0,0,1-3.79-1.11,40.47,40.47,0,0,0,.33-5.94h1.31v1a8,8,0,0,0,.19,2.32,2.53,2.53,0,0,0,.91.94,7.89,7.89,0,0,0,2.52,1.15,12.28,12.28,0,0,0,3.17.4,8.38,8.38,0,0,0,5.63-1.72,5.51,5.51,0,0,0,2-4.36,4.78,4.78,0,0,0-.67-2.61,4,4,0,0,0-1.89-1.59,16.39,16.39,0,0,0-4.49-.79,20.9,20.9,0,0,1-5.92-1,5.31,5.31,0,0,1-2.45-2.19A7.18,7.18,0,0,1,449,290a7.81,7.81,0,0,1,2.72-6.15c1.81-1.6,4.32-2.39,7.52-2.39a18.32,18.32,0,0,1,3.87.41A21.12,21.12,0,0,1,466.94,283.13Z"/><path class="cls-1" d="M116.29,341V330.5h1V340h6V341Z"/><path class="cls-1" d="M136.4,340V341h-7V330.5h6.89v.91H130.4v3.77h5.12v.87H130.4v4Z"/><path class="cls-1" d="M151,341V330.5h3.53a5.52,5.52,0,0,1,2.19.41,4.53,4.53,0,0,1,1.57,1.12,4.73,4.73,0,0,1,.93,1.66,6.76,6.76,0,0,1,0,4.17,4.59,4.59,0,0,1-1,1.65,4.32,4.32,0,0,1-1.57,1.06,5.49,5.49,0,0,1-2.07.38Zm7.5-5.24a5.32,5.32,0,0,0-.27-1.73,3.79,3.79,0,0,0-.77-1.36,3.48,3.48,0,0,0-1.24-.89,4.28,4.28,0,0,0-1.69-.32H152V340h2.52a4.17,4.17,0,0,0,1.71-.33,3.36,3.36,0,0,0,1.24-.91,3.82,3.82,0,0,0,.76-1.37A5.48,5.48,0,0,0,158.48,335.71Z"/><path class="cls-1" d="M166,341V330.5h4.4a2.77,2.77,0,0,1,1.25.29,3.16,3.16,0,0,1,1,.75,3.33,3.33,0,0,1,.64,1,3.11,3.11,0,0,1,.23,1.19,3.67,3.67,0,0,1-.17,1.1,3.18,3.18,0,0,1-1.21,1.65,2.63,2.63,0,0,1-1,.39l2.58,4h-1.16l-2.48-3.86H167V341Zm1-4.77h3.42a1.76,1.76,0,0,0,.83-.2,1.85,1.85,0,0,0,.64-.54,2.33,2.33,0,0,0,.41-.76,2.66,2.66,0,0,0,.15-.9,2.32,2.32,0,0,0-.17-.9,2.51,2.51,0,0,0-.45-.76,2.16,2.16,0,0,0-.68-.52,1.93,1.93,0,0,0-.82-.19H167Z"/><path class="cls-1" d="M184.25,341a4.45,4.45,0,0,1-2-.45,5.05,5.05,0,0,1-1.55-1.19,5.57,5.57,0,0,1-1-1.7,5.75,5.75,0,0,1-.35-2,5.46,5.46,0,0,1,.37-2,5.83,5.83,0,0,1,1-1.69,5,5,0,0,1,1.56-1.17,4.41,4.41,0,0,1,1.94-.43,4.33,4.33,0,0,1,2,.46,5,5,0,0,1,1.54,1.22,5.52,5.52,0,0,1,1,5.63,5.32,5.32,0,0,1-1,1.68,5,5,0,0,1-1.55,1.17A4.55,4.55,0,0,1,184.25,341Zm-3.87-5.3a4.75,4.75,0,0,0,.28,1.64,4.38,4.38,0,0,0,.79,1.4,3.94,3.94,0,0,0,1.22,1,3.43,3.43,0,0,0,1.58.36,3.29,3.29,0,0,0,1.6-.38,3.83,3.83,0,0,0,1.22-1,4.44,4.44,0,0,0,.77-1.4,4.59,4.59,0,0,0,.28-1.59,4.84,4.84,0,0,0-.29-1.64,4.67,4.67,0,0,0-.8-1.39,4.06,4.06,0,0,0-1.22-1,3.38,3.38,0,0,0-1.56-.36,3.6,3.6,0,0,0-1.61.37,4.09,4.09,0,0,0-1.22,1,4.65,4.65,0,0,0-.77,1.4A4.77,4.77,0,0,0,180.38,335.72Z"/><path class="cls-1" d="M195.53,341V330.52h1V341Z"/><path class="cls-1" d="M211,331.41h-3.72V341h-1v-9.54h-3.72v-.91H211Z"/><path class="cls-1" d="M224.82,341V330.5h3.53a5.52,5.52,0,0,1,2.19.41A4.49,4.49,0,0,1,232.1,332a4.6,4.6,0,0,1,.94,1.66,6.62,6.62,0,0,1,.31,2,6.1,6.1,0,0,1-.36,2.15,4.43,4.43,0,0,1-1,1.65,4.32,4.32,0,0,1-1.57,1.06,5.49,5.49,0,0,1-2.07.38Zm7.5-5.24a5.32,5.32,0,0,0-.27-1.73,3.79,3.79,0,0,0-.77-1.36,3.48,3.48,0,0,0-1.24-.89,4.28,4.28,0,0,0-1.69-.32h-2.52V340h2.52a4.21,4.21,0,0,0,1.71-.33,3.45,3.45,0,0,0,1.24-.91,3.82,3.82,0,0,0,.76-1.37A5.48,5.48,0,0,0,232.32,335.71Z"/><path class="cls-1" d="M246.85,340V341h-7V330.5h6.89v.91h-5.87v3.77H246v.87h-5.12v4Z"/><path class="cls-1" d="M261.44,341V330.5h1V340h6V341Z"/><path class="cls-1" d="M272.4,330.21a2,2,0,0,1,.43.05,1.07,1.07,0,0,1,.36.16.79.79,0,0,1,.27.3.83.83,0,0,1,.1.43v1.76h-.85v-1.63a.28.28,0,0,0-.1-.25.42.42,0,0,0-.21-.06Z"/><path class="cls-1" d="M280.27,341V330.52h1V341Z"/><path class="cls-1" d="M297.6,341v-8.58L293.79,339h-.61l-3.82-6.63V341h-1V330.5h1.05l4.09,7.15,4.09-7.15h1V341Z"/><path class="cls-1" d="M314.92,341v-8.58L311.11,339h-.6l-3.82-6.63V341h-1V330.5h1.05l4.09,7.15,4.08-7.15h1.05V341Z"/><path class="cls-1" d="M330,340V341h-7V330.5h6.88v.91H324v3.77h5.12v.87H324v4Z"/><path class="cls-1" d="M340.65,340.09a3.26,3.26,0,0,0,1.64-.37,2.91,2.91,0,0,0,1-1,3.89,3.89,0,0,0,.55-1.39,8.27,8.27,0,0,0,.15-1.57V330.5h1v5.27a8.78,8.78,0,0,1-.23,2,4.9,4.9,0,0,1-.76,1.67,3.7,3.7,0,0,1-1.36,1.14,4.41,4.41,0,0,1-2,.43,4.33,4.33,0,0,1-2.08-.45,3.9,3.9,0,0,1-1.36-1.18,4.72,4.72,0,0,1-.73-1.68,8.3,8.3,0,0,1-.22-1.94V330.5h1v5.27a8.43,8.43,0,0,0,.16,1.6,3.86,3.86,0,0,0,.56,1.38,2.75,2.75,0,0,0,1,1A3.18,3.18,0,0,0,340.65,340.09Z"/><path class="cls-1" d="M359.79,338.25a2.38,2.38,0,0,1-.24,1.08,2.85,2.85,0,0,1-.63.86,3.12,3.12,0,0,1-.93.56,3.24,3.24,0,0,1-1.13.2H352V330.5h5a2.07,2.07,0,0,1,1,.24,2.46,2.46,0,0,1,.75.61,3.07,3.07,0,0,1,.48.85,2.93,2.93,0,0,1,.16,1,2.76,2.76,0,0,1-.39,1.45,2.41,2.41,0,0,1-1.11,1,2.6,2.6,0,0,1,1.42,1A2.77,2.77,0,0,1,359.79,338.25ZM353,331.4v3.85h3.59a1.54,1.54,0,0,0,.71-.16,1.91,1.91,0,0,0,.58-.43,1.88,1.88,0,0,0,.37-.61,2,2,0,0,0,.13-.72,2.27,2.27,0,0,0-.12-.75,1.74,1.74,0,0,0-.35-.61,1.87,1.87,0,0,0-.55-.42,1.57,1.57,0,0,0-.68-.15Zm5.8,6.68a2.17,2.17,0,0,0-.14-.75,1.81,1.81,0,0,0-.37-.63,1.89,1.89,0,0,0-.57-.44,1.62,1.62,0,0,0-.72-.17h-4v4h3.9a1.94,1.94,0,0,0,.75-.16,1.9,1.9,0,0,0,.6-.44,2.05,2.05,0,0,0,.4-.63A1.92,1.92,0,0,0,358.76,338.08Z"/><path class="cls-1" d="M366.18,341V330.5h1V340h6V341Z"/><path class="cls-1" d="M386.28,340V341h-7V330.5h6.88v.91h-5.86v3.77h5.11v.87h-5.11v4Z"/><path class="cls-1" d="M308.63,244.77v-3.29h-1.74c-4.3-.22-6.27-2.94-8-7.25l-27.16-66.64-6,15.32L278.66,215H253.23L252,218.25h28.1l6.28,15c1,2.49,1.62,3.85,1.62,5.33,0,2.83-4.76,2.94-7.67,2.94h-1.39v3.29Z"/></svg>